<svg xmlns="http://www.w3.org/2000/svg" width="440" height="180" viewBox="0 0 440 180"><rect x="32" y="17" width="376" height="148" rx="12" fill="#fff"/><text x="49" y="43" font-family="Arial,sans-serif" font-size="13" fill="#193252" font-weight="600">Tu catálogo, siempre a mano</text><rect x="49" y="57" width="108" height="66" rx="9" fill="#e4eaff"/><circle cx="103" cy="90" r="18" fill="#798fec"/><rect x="49" y="133" width="78" height="5" rx="3" fill="#d6e3f4"/><rect x="49" y="146" width="39" height="5" rx="3" fill="#91abd0"/><rect x="165" y="57" width="108" height="66" rx="9" fill="#d5f3f4"/><circle cx="219" cy="90" r="18" fill="#5cbbbc"/><rect x="165" y="133" width="78" height="5" rx="3" fill="#d6e3f4"/><rect x="165" y="146" width="39" height="5" rx="3" fill="#91abd0"/><rect x="281" y="57" width="108" height="66" rx="9" fill="#fff0db"/><circle cx="335" cy="90" r="18" fill="#e3b068"/><rect x="281" y="133" width="78" height="5" rx="3" fill="#d6e3f4"/><rect x="281" y="146" width="39" height="5" rx="3" fill="#91abd0"/></svg>